<mxfile host="Electron" agent="Mozilla/5.0 (Windows NT 10.0; Win64; x64) AppleWebKit/537.36 (KHTML, like Gecko) draw.io/25.0.2 Chrome/128.0.6613.186 Electron/32.2.5 Safari/537.36" version="25.0.2">
  <diagram name="Page-1" id="VEvTFSwitGI6XrgRGFSO">
    <mxGraphModel dx="1434" dy="836" grid="1" gridSize="10" guides="1" tooltips="1" connect="1" arrows="1" fold="1" page="1" pageScale="1" pageWidth="1654" pageHeight="1169" math="0" shadow="0">
      <root>
        <mxCell id="0" />
        <mxCell id="1" parent="0" />
        <mxCell id="klNUv37gP6uQdQujOBO8-1" value="Taxi&lt;div&gt;Rendelés&lt;/div&gt;" style="rounded=0;whiteSpace=wrap;html=1;" vertex="1" parent="1">
          <mxGeometry x="810" y="20" width="100" height="50" as="geometry" />
        </mxCell>
        <mxCell id="klNUv37gP6uQdQujOBO8-2" value="Rendelés" style="rounded=0;whiteSpace=wrap;html=1;" vertex="1" parent="1">
          <mxGeometry x="810" y="110" width="100" height="50" as="geometry" />
        </mxCell>
        <mxCell id="klNUv37gP6uQdQujOBO8-4" value="Utas" style="rounded=0;whiteSpace=wrap;html=1;" vertex="1" parent="1">
          <mxGeometry x="240" y="120" width="100" height="50" as="geometry" />
        </mxCell>
        <mxCell id="klNUv37gP6uQdQujOBO8-5" value="Megrendelés" style="rhombus;whiteSpace=wrap;html=1;" vertex="1" parent="1">
          <mxGeometry x="520" y="110" width="90" height="60" as="geometry" />
        </mxCell>
        <mxCell id="klNUv37gP6uQdQujOBO8-6" value="Fuvar" style="rhombus;whiteSpace=wrap;html=1;" vertex="1" parent="1">
          <mxGeometry x="815" y="350" width="90" height="60" as="geometry" />
        </mxCell>
        <mxCell id="klNUv37gP6uQdQujOBO8-7" value="Vezet" style="rhombus;whiteSpace=wrap;html=1;" vertex="1" parent="1">
          <mxGeometry x="1100" y="100" width="90" height="60" as="geometry" />
        </mxCell>
        <mxCell id="klNUv37gP6uQdQujOBO8-8" value="Út" style="rounded=0;whiteSpace=wrap;html=1;" vertex="1" parent="1">
          <mxGeometry x="810" y="510" width="100" height="50" as="geometry" />
        </mxCell>
        <mxCell id="klNUv37gP6uQdQujOBO8-9" value="Vezető" style="rounded=0;whiteSpace=wrap;html=1;" vertex="1" parent="1">
          <mxGeometry x="1290" y="110" width="100" height="50" as="geometry" />
        </mxCell>
        <mxCell id="klNUv37gP6uQdQujOBO8-10" value="Taxi" style="rounded=0;whiteSpace=wrap;html=1;" vertex="1" parent="1">
          <mxGeometry x="1290" y="410" width="100" height="50" as="geometry" />
        </mxCell>
        <mxCell id="klNUv37gP6uQdQujOBO8-11" value="Gépkocsija" style="rhombus;whiteSpace=wrap;html=1;" vertex="1" parent="1">
          <mxGeometry x="1295" y="280" width="90" height="60" as="geometry" />
        </mxCell>
        <mxCell id="klNUv37gP6uQdQujOBO8-12" value="" style="endArrow=none;html=1;rounded=0;exitX=0.5;exitY=0;exitDx=0;exitDy=0;" edge="1" parent="1" source="klNUv37gP6uQdQujOBO8-2">
          <mxGeometry width="50" height="50" relative="1" as="geometry">
            <mxPoint x="810" y="120" as="sourcePoint" />
            <mxPoint x="860" y="70" as="targetPoint" />
          </mxGeometry>
        </mxCell>
        <mxCell id="klNUv37gP6uQdQujOBO8-13" value="" style="endArrow=none;html=1;rounded=0;" edge="1" parent="1">
          <mxGeometry width="50" height="50" relative="1" as="geometry">
            <mxPoint x="610" y="139" as="sourcePoint" />
            <mxPoint x="810" y="140" as="targetPoint" />
          </mxGeometry>
        </mxCell>
        <mxCell id="klNUv37gP6uQdQujOBO8-14" value="" style="endArrow=none;html=1;rounded=0;entryX=0;entryY=0.5;entryDx=0;entryDy=0;" edge="1" parent="1" target="klNUv37gP6uQdQujOBO8-5">
          <mxGeometry width="50" height="50" relative="1" as="geometry">
            <mxPoint x="340" y="140" as="sourcePoint" />
            <mxPoint x="440" y="137.5" as="targetPoint" />
          </mxGeometry>
        </mxCell>
        <mxCell id="klNUv37gP6uQdQujOBO8-16" value="" style="endArrow=none;html=1;rounded=0;entryX=0;entryY=0.5;entryDx=0;entryDy=0;" edge="1" parent="1" target="klNUv37gP6uQdQujOBO8-7">
          <mxGeometry width="50" height="50" relative="1" as="geometry">
            <mxPoint x="910" y="130" as="sourcePoint" />
            <mxPoint x="1080" y="129.5" as="targetPoint" />
          </mxGeometry>
        </mxCell>
        <mxCell id="klNUv37gP6uQdQujOBO8-17" value="" style="endArrow=none;html=1;rounded=0;entryX=0.5;entryY=1;entryDx=0;entryDy=0;exitX=0.5;exitY=0;exitDx=0;exitDy=0;" edge="1" parent="1" source="klNUv37gP6uQdQujOBO8-6" target="klNUv37gP6uQdQujOBO8-2">
          <mxGeometry width="50" height="50" relative="1" as="geometry">
            <mxPoint x="860" y="350" as="sourcePoint" />
            <mxPoint x="860" y="260" as="targetPoint" />
          </mxGeometry>
        </mxCell>
        <mxCell id="klNUv37gP6uQdQujOBO8-18" value="" style="endArrow=none;html=1;rounded=0;exitX=0.1;exitY=0.4;exitDx=0;exitDy=0;exitPerimeter=0;" edge="1" parent="1">
          <mxGeometry width="50" height="50" relative="1" as="geometry">
            <mxPoint x="1189" y="130" as="sourcePoint" />
            <mxPoint x="1290" y="130" as="targetPoint" />
          </mxGeometry>
        </mxCell>
        <mxCell id="klNUv37gP6uQdQujOBO8-19" value="" style="endArrow=none;html=1;rounded=0;exitX=0.5;exitY=0;exitDx=0;exitDy=0;entryX=0.5;entryY=1;entryDx=0;entryDy=0;" edge="1" parent="1" source="klNUv37gP6uQdQujOBO8-11" target="klNUv37gP6uQdQujOBO8-9">
          <mxGeometry width="50" height="50" relative="1" as="geometry">
            <mxPoint x="1295" y="210" as="sourcePoint" />
            <mxPoint x="1345" y="160" as="targetPoint" />
          </mxGeometry>
        </mxCell>
        <mxCell id="klNUv37gP6uQdQujOBO8-20" value="" style="endArrow=none;html=1;rounded=0;exitX=0.5;exitY=0;exitDx=0;exitDy=0;" edge="1" parent="1" source="klNUv37gP6uQdQujOBO8-8">
          <mxGeometry width="50" height="50" relative="1" as="geometry">
            <mxPoint x="810" y="460" as="sourcePoint" />
            <mxPoint x="860" y="410" as="targetPoint" />
          </mxGeometry>
        </mxCell>
        <mxCell id="klNUv37gP6uQdQujOBO8-21" value="" style="endArrow=none;html=1;rounded=0;exitX=0.5;exitY=0;exitDx=0;exitDy=0;" edge="1" parent="1" source="klNUv37gP6uQdQujOBO8-10">
          <mxGeometry width="50" height="50" relative="1" as="geometry">
            <mxPoint x="1290" y="370" as="sourcePoint" />
            <mxPoint x="1340" y="340" as="targetPoint" />
          </mxGeometry>
        </mxCell>
        <mxCell id="klNUv37gP6uQdQujOBO8-22" value="&lt;u&gt;Utas ID&lt;/u&gt;" style="ellipse;whiteSpace=wrap;html=1;" vertex="1" parent="1">
          <mxGeometry x="40" y="230" width="80" height="50" as="geometry" />
        </mxCell>
        <mxCell id="klNUv37gP6uQdQujOBO8-23" value="Lakcím" style="ellipse;whiteSpace=wrap;html=1;dashed=1;dashPattern=8 8;" vertex="1" parent="1">
          <mxGeometry x="450" y="230" width="80" height="50" as="geometry" />
        </mxCell>
        <mxCell id="klNUv37gP6uQdQujOBO8-24" value="Név" style="ellipse;whiteSpace=wrap;html=1;" vertex="1" parent="1">
          <mxGeometry x="150" y="230" width="80" height="50" as="geometry" />
        </mxCell>
        <mxCell id="klNUv37gP6uQdQujOBO8-25" value="Telefon" style="ellipse;whiteSpace=wrap;html=1;" vertex="1" parent="1">
          <mxGeometry x="250" y="230" width="80" height="50" as="geometry" />
        </mxCell>
        <mxCell id="klNUv37gP6uQdQujOBO8-26" value="E-mail" style="ellipse;whiteSpace=wrap;html=1;" vertex="1" parent="1">
          <mxGeometry x="350" y="230" width="80" height="50" as="geometry" />
        </mxCell>
        <mxCell id="klNUv37gP6uQdQujOBO8-27" value="Irányítóám" style="ellipse;whiteSpace=wrap;html=1;" vertex="1" parent="1">
          <mxGeometry x="570" y="350" width="80" height="50" as="geometry" />
        </mxCell>
        <mxCell id="klNUv37gP6uQdQujOBO8-28" value="utca,hsz." style="ellipse;whiteSpace=wrap;html=1;" vertex="1" parent="1">
          <mxGeometry x="460" y="350" width="80" height="50" as="geometry" />
        </mxCell>
        <mxCell id="klNUv37gP6uQdQujOBO8-29" value="Város" style="ellipse;whiteSpace=wrap;html=1;" vertex="1" parent="1">
          <mxGeometry x="350" y="350" width="80" height="50" as="geometry" />
        </mxCell>
        <mxCell id="klNUv37gP6uQdQujOBO8-30" value="" style="endArrow=none;html=1;rounded=0;exitX=0.75;exitY=0.1;exitDx=0;exitDy=0;exitPerimeter=0;" edge="1" parent="1" source="klNUv37gP6uQdQujOBO8-22">
          <mxGeometry width="50" height="50" relative="1" as="geometry">
            <mxPoint x="190" y="220" as="sourcePoint" />
            <mxPoint x="240" y="170" as="targetPoint" />
          </mxGeometry>
        </mxCell>
        <mxCell id="klNUv37gP6uQdQujOBO8-31" value="" style="endArrow=none;html=1;rounded=0;entryX=0.38;entryY=1.02;entryDx=0;entryDy=0;entryPerimeter=0;" edge="1" parent="1" target="klNUv37gP6uQdQujOBO8-4">
          <mxGeometry width="50" height="50" relative="1" as="geometry">
            <mxPoint x="210" y="230" as="sourcePoint" />
            <mxPoint x="260" y="180" as="targetPoint" />
          </mxGeometry>
        </mxCell>
        <mxCell id="klNUv37gP6uQdQujOBO8-32" value="" style="endArrow=none;html=1;rounded=0;entryX=0.5;entryY=1;entryDx=0;entryDy=0;" edge="1" parent="1" target="klNUv37gP6uQdQujOBO8-4">
          <mxGeometry width="50" height="50" relative="1" as="geometry">
            <mxPoint x="290" y="230" as="sourcePoint" />
            <mxPoint x="340" y="180" as="targetPoint" />
          </mxGeometry>
        </mxCell>
        <mxCell id="klNUv37gP6uQdQujOBO8-33" value="" style="endArrow=none;html=1;rounded=0;entryX=0.75;entryY=1;entryDx=0;entryDy=0;" edge="1" parent="1" target="klNUv37gP6uQdQujOBO8-4">
          <mxGeometry width="50" height="50" relative="1" as="geometry">
            <mxPoint x="390" y="230" as="sourcePoint" />
            <mxPoint x="440" y="180" as="targetPoint" />
          </mxGeometry>
        </mxCell>
        <mxCell id="klNUv37gP6uQdQujOBO8-34" value="" style="endArrow=none;html=1;rounded=0;entryX=1;entryY=1;entryDx=0;entryDy=0;" edge="1" parent="1" target="klNUv37gP6uQdQujOBO8-4">
          <mxGeometry width="50" height="50" relative="1" as="geometry">
            <mxPoint x="490" y="230" as="sourcePoint" />
            <mxPoint x="540" y="180" as="targetPoint" />
          </mxGeometry>
        </mxCell>
        <mxCell id="klNUv37gP6uQdQujOBO8-35" value="" style="endArrow=none;html=1;rounded=0;exitX=0.5;exitY=0;exitDx=0;exitDy=0;" edge="1" parent="1" source="klNUv37gP6uQdQujOBO8-29">
          <mxGeometry width="50" height="50" relative="1" as="geometry">
            <mxPoint x="420" y="325" as="sourcePoint" />
            <mxPoint x="470" y="275" as="targetPoint" />
          </mxGeometry>
        </mxCell>
        <mxCell id="klNUv37gP6uQdQujOBO8-36" value="" style="endArrow=none;html=1;rounded=0;entryX=0.5;entryY=1;entryDx=0;entryDy=0;" edge="1" parent="1" target="klNUv37gP6uQdQujOBO8-23">
          <mxGeometry width="50" height="50" relative="1" as="geometry">
            <mxPoint x="490" y="350" as="sourcePoint" />
            <mxPoint x="540" y="300" as="targetPoint" />
          </mxGeometry>
        </mxCell>
        <mxCell id="klNUv37gP6uQdQujOBO8-37" value="" style="endArrow=none;html=1;rounded=0;entryX=0.938;entryY=0.76;entryDx=0;entryDy=0;entryPerimeter=0;" edge="1" parent="1" target="klNUv37gP6uQdQujOBO8-23">
          <mxGeometry width="50" height="50" relative="1" as="geometry">
            <mxPoint x="620" y="350" as="sourcePoint" />
            <mxPoint x="670" y="300" as="targetPoint" />
          </mxGeometry>
        </mxCell>
        <mxCell id="klNUv37gP6uQdQujOBO8-38" value="&lt;u&gt;Út ID&lt;/u&gt;" style="ellipse;whiteSpace=wrap;html=1;" vertex="1" parent="1">
          <mxGeometry x="610" y="620" width="80" height="50" as="geometry" />
        </mxCell>
        <mxCell id="klNUv37gP6uQdQujOBO8-39" value="Utazási idő" style="ellipse;whiteSpace=wrap;html=1;" vertex="1" parent="1">
          <mxGeometry x="1020" y="620" width="80" height="50" as="geometry" />
        </mxCell>
        <mxCell id="klNUv37gP6uQdQujOBO8-40" value="Kezdőpont" style="ellipse;whiteSpace=wrap;html=1;" vertex="1" parent="1">
          <mxGeometry x="720" y="620" width="80" height="50" as="geometry" />
        </mxCell>
        <mxCell id="klNUv37gP6uQdQujOBO8-41" value="Végpont" style="ellipse;whiteSpace=wrap;html=1;" vertex="1" parent="1">
          <mxGeometry x="820" y="620" width="80" height="50" as="geometry" />
        </mxCell>
        <mxCell id="klNUv37gP6uQdQujOBO8-42" value="Távolság" style="ellipse;whiteSpace=wrap;html=1;" vertex="1" parent="1">
          <mxGeometry x="920" y="620" width="80" height="50" as="geometry" />
        </mxCell>
        <mxCell id="klNUv37gP6uQdQujOBO8-46" value="" style="endArrow=none;html=1;rounded=0;exitX=0.75;exitY=0.1;exitDx=0;exitDy=0;exitPerimeter=0;" edge="1" parent="1" source="klNUv37gP6uQdQujOBO8-38">
          <mxGeometry width="50" height="50" relative="1" as="geometry">
            <mxPoint x="760" y="610" as="sourcePoint" />
            <mxPoint x="810" y="560" as="targetPoint" />
          </mxGeometry>
        </mxCell>
        <mxCell id="klNUv37gP6uQdQujOBO8-47" value="" style="endArrow=none;html=1;rounded=0;entryX=0.38;entryY=1.02;entryDx=0;entryDy=0;entryPerimeter=0;" edge="1" parent="1">
          <mxGeometry width="50" height="50" relative="1" as="geometry">
            <mxPoint x="780" y="620" as="sourcePoint" />
            <mxPoint x="848" y="561" as="targetPoint" />
          </mxGeometry>
        </mxCell>
        <mxCell id="klNUv37gP6uQdQujOBO8-48" value="" style="endArrow=none;html=1;rounded=0;entryX=0.5;entryY=1;entryDx=0;entryDy=0;" edge="1" parent="1">
          <mxGeometry width="50" height="50" relative="1" as="geometry">
            <mxPoint x="860" y="620" as="sourcePoint" />
            <mxPoint x="860" y="560" as="targetPoint" />
          </mxGeometry>
        </mxCell>
        <mxCell id="klNUv37gP6uQdQujOBO8-49" value="" style="endArrow=none;html=1;rounded=0;entryX=0.75;entryY=1;entryDx=0;entryDy=0;" edge="1" parent="1">
          <mxGeometry width="50" height="50" relative="1" as="geometry">
            <mxPoint x="960" y="620" as="sourcePoint" />
            <mxPoint x="885" y="560" as="targetPoint" />
          </mxGeometry>
        </mxCell>
        <mxCell id="klNUv37gP6uQdQujOBO8-50" value="" style="endArrow=none;html=1;rounded=0;entryX=1;entryY=1;entryDx=0;entryDy=0;" edge="1" parent="1">
          <mxGeometry width="50" height="50" relative="1" as="geometry">
            <mxPoint x="1060" y="620" as="sourcePoint" />
            <mxPoint x="910" y="560" as="targetPoint" />
          </mxGeometry>
        </mxCell>
        <mxCell id="klNUv37gP6uQdQujOBO8-54" value="&lt;u&gt;Taxi ID&lt;/u&gt;" style="ellipse;whiteSpace=wrap;html=1;" vertex="1" parent="1">
          <mxGeometry x="1110" y="520" width="80" height="50" as="geometry" />
        </mxCell>
        <mxCell id="klNUv37gP6uQdQujOBO8-56" value="Rendszám" style="ellipse;whiteSpace=wrap;html=1;" vertex="1" parent="1">
          <mxGeometry x="1215" y="520" width="80" height="50" as="geometry" />
        </mxCell>
        <mxCell id="klNUv37gP6uQdQujOBO8-57" value="Model" style="ellipse;whiteSpace=wrap;html=1;" vertex="1" parent="1">
          <mxGeometry x="1320" y="520" width="80" height="50" as="geometry" />
        </mxCell>
        <mxCell id="klNUv37gP6uQdQujOBO8-58" value="Kapacitás" style="ellipse;whiteSpace=wrap;html=1;" vertex="1" parent="1">
          <mxGeometry x="1430" y="520" width="80" height="50" as="geometry" />
        </mxCell>
        <mxCell id="klNUv37gP6uQdQujOBO8-59" value="" style="endArrow=none;html=1;rounded=0;exitX=0.75;exitY=0.1;exitDx=0;exitDy=0;exitPerimeter=0;" edge="1" parent="1" source="klNUv37gP6uQdQujOBO8-54">
          <mxGeometry width="50" height="50" relative="1" as="geometry">
            <mxPoint x="1240" y="510" as="sourcePoint" />
            <mxPoint x="1290" y="460" as="targetPoint" />
          </mxGeometry>
        </mxCell>
        <mxCell id="klNUv37gP6uQdQujOBO8-60" value="" style="endArrow=none;html=1;rounded=0;entryX=0.38;entryY=1.02;entryDx=0;entryDy=0;entryPerimeter=0;" edge="1" parent="1">
          <mxGeometry width="50" height="50" relative="1" as="geometry">
            <mxPoint x="1260" y="520" as="sourcePoint" />
            <mxPoint x="1328" y="461" as="targetPoint" />
          </mxGeometry>
        </mxCell>
        <mxCell id="klNUv37gP6uQdQujOBO8-61" value="" style="endArrow=none;html=1;rounded=0;entryX=0.5;entryY=1;entryDx=0;entryDy=0;" edge="1" parent="1">
          <mxGeometry width="50" height="50" relative="1" as="geometry">
            <mxPoint x="1359.5" y="520" as="sourcePoint" />
            <mxPoint x="1359.5" y="460" as="targetPoint" />
          </mxGeometry>
        </mxCell>
        <mxCell id="klNUv37gP6uQdQujOBO8-62" value="" style="endArrow=none;html=1;rounded=0;entryX=0.75;entryY=1;entryDx=0;entryDy=0;" edge="1" parent="1">
          <mxGeometry width="50" height="50" relative="1" as="geometry">
            <mxPoint x="1465" y="520" as="sourcePoint" />
            <mxPoint x="1390" y="460" as="targetPoint" />
          </mxGeometry>
        </mxCell>
        <mxCell id="klNUv37gP6uQdQujOBO8-64" value="&lt;u&gt;Vezető ID&lt;/u&gt;" style="ellipse;whiteSpace=wrap;html=1;" vertex="1" parent="1">
          <mxGeometry x="1160" y="220" width="80" height="50" as="geometry" />
        </mxCell>
        <mxCell id="klNUv37gP6uQdQujOBO8-65" value="Név" style="ellipse;whiteSpace=wrap;html=1;" vertex="1" parent="1">
          <mxGeometry x="1250" y="220" width="80" height="50" as="geometry" />
        </mxCell>
        <mxCell id="klNUv37gP6uQdQujOBO8-66" value="Jogosítvány szám" style="ellipse;whiteSpace=wrap;html=1;" vertex="1" parent="1">
          <mxGeometry x="1370" y="220" width="80" height="50" as="geometry" />
        </mxCell>
        <mxCell id="klNUv37gP6uQdQujOBO8-67" value="Jogosítvány kategória" style="ellipse;whiteSpace=wrap;html=1;" vertex="1" parent="1">
          <mxGeometry x="1470" y="220" width="80" height="50" as="geometry" />
        </mxCell>
        <mxCell id="klNUv37gP6uQdQujOBO8-68" value="" style="endArrow=none;html=1;rounded=0;exitX=0.75;exitY=0.1;exitDx=0;exitDy=0;exitPerimeter=0;" edge="1" parent="1" source="klNUv37gP6uQdQujOBO8-64">
          <mxGeometry width="50" height="50" relative="1" as="geometry">
            <mxPoint x="1240" y="210" as="sourcePoint" />
            <mxPoint x="1290" y="160" as="targetPoint" />
          </mxGeometry>
        </mxCell>
        <mxCell id="klNUv37gP6uQdQujOBO8-69" value="" style="endArrow=none;html=1;rounded=0;entryX=0.38;entryY=1.02;entryDx=0;entryDy=0;entryPerimeter=0;exitX=0.363;exitY=0.04;exitDx=0;exitDy=0;exitPerimeter=0;" edge="1" parent="1" source="klNUv37gP6uQdQujOBO8-65">
          <mxGeometry width="50" height="50" relative="1" as="geometry">
            <mxPoint x="1260" y="220" as="sourcePoint" />
            <mxPoint x="1328" y="161" as="targetPoint" />
          </mxGeometry>
        </mxCell>
        <mxCell id="klNUv37gP6uQdQujOBO8-70" value="" style="endArrow=none;html=1;rounded=0;entryX=0.5;entryY=1;entryDx=0;entryDy=0;exitX=0.388;exitY=0.04;exitDx=0;exitDy=0;exitPerimeter=0;" edge="1" parent="1" source="klNUv37gP6uQdQujOBO8-66">
          <mxGeometry width="50" height="50" relative="1" as="geometry">
            <mxPoint x="1359.5" y="220" as="sourcePoint" />
            <mxPoint x="1359.5" y="160" as="targetPoint" />
          </mxGeometry>
        </mxCell>
        <mxCell id="klNUv37gP6uQdQujOBO8-71" value="" style="endArrow=none;html=1;rounded=0;entryX=0.75;entryY=1;entryDx=0;entryDy=0;exitX=0.5;exitY=0;exitDx=0;exitDy=0;" edge="1" parent="1" source="klNUv37gP6uQdQujOBO8-67">
          <mxGeometry width="50" height="50" relative="1" as="geometry">
            <mxPoint x="1465" y="220" as="sourcePoint" />
            <mxPoint x="1390" y="160" as="targetPoint" />
          </mxGeometry>
        </mxCell>
        <mxCell id="klNUv37gP6uQdQujOBO8-72" value="Telefon" style="ellipse;whiteSpace=wrap;html=1;" vertex="1" parent="1">
          <mxGeometry x="1562" y="220" width="80" height="50" as="geometry" />
        </mxCell>
        <mxCell id="klNUv37gP6uQdQujOBO8-73" value="" style="endArrow=none;html=1;rounded=0;entryX=0.98;entryY=0.64;entryDx=0;entryDy=0;entryPerimeter=0;" edge="1" parent="1" target="klNUv37gP6uQdQujOBO8-9">
          <mxGeometry width="50" height="50" relative="1" as="geometry">
            <mxPoint x="1597" y="220" as="sourcePoint" />
            <mxPoint x="1378" y="125" as="targetPoint" />
          </mxGeometry>
        </mxCell>
        <mxCell id="klNUv37gP6uQdQujOBO8-74" value="&lt;u&gt;Rendelés ID&lt;/u&gt;" style="ellipse;whiteSpace=wrap;html=1;" vertex="1" parent="1">
          <mxGeometry x="640" y="210" width="80" height="50" as="geometry" />
        </mxCell>
        <mxCell id="klNUv37gP6uQdQujOBO8-75" value="Felvétel helye" style="ellipse;whiteSpace=wrap;html=1;" vertex="1" parent="1">
          <mxGeometry x="740" y="210" width="80" height="50" as="geometry" />
        </mxCell>
        <mxCell id="klNUv37gP6uQdQujOBO8-76" value="Leadás helye" style="ellipse;whiteSpace=wrap;html=1;" vertex="1" parent="1">
          <mxGeometry x="870" y="210" width="80" height="50" as="geometry" />
        </mxCell>
        <mxCell id="klNUv37gP6uQdQujOBO8-77" value="Rendelés ideje" style="ellipse;whiteSpace=wrap;html=1;" vertex="1" parent="1">
          <mxGeometry x="960" y="210" width="80" height="50" as="geometry" />
        </mxCell>
        <mxCell id="klNUv37gP6uQdQujOBO8-78" value="" style="endArrow=none;html=1;rounded=0;exitX=0.75;exitY=0.1;exitDx=0;exitDy=0;exitPerimeter=0;entryX=0;entryY=1;entryDx=0;entryDy=0;" edge="1" parent="1" source="klNUv37gP6uQdQujOBO8-74" target="klNUv37gP6uQdQujOBO8-2">
          <mxGeometry width="50" height="50" relative="1" as="geometry">
            <mxPoint x="770" y="210" as="sourcePoint" />
            <mxPoint x="820" y="160" as="targetPoint" />
          </mxGeometry>
        </mxCell>
        <mxCell id="klNUv37gP6uQdQujOBO8-79" value="" style="endArrow=none;html=1;rounded=0;entryX=0.25;entryY=1;entryDx=0;entryDy=0;exitX=0.5;exitY=0;exitDx=0;exitDy=0;" edge="1" parent="1" source="klNUv37gP6uQdQujOBO8-75" target="klNUv37gP6uQdQujOBO8-2">
          <mxGeometry width="50" height="50" relative="1" as="geometry">
            <mxPoint x="790" y="220" as="sourcePoint" />
            <mxPoint x="858" y="161" as="targetPoint" />
          </mxGeometry>
        </mxCell>
        <mxCell id="klNUv37gP6uQdQujOBO8-80" value="" style="endArrow=none;html=1;rounded=0;entryX=0.5;entryY=1;entryDx=0;entryDy=0;exitX=0.588;exitY=0.04;exitDx=0;exitDy=0;exitPerimeter=0;" edge="1" parent="1" source="klNUv37gP6uQdQujOBO8-76">
          <mxGeometry width="50" height="50" relative="1" as="geometry">
            <mxPoint x="910" y="220" as="sourcePoint" />
            <mxPoint x="905" y="160" as="targetPoint" />
          </mxGeometry>
        </mxCell>
        <mxCell id="klNUv37gP6uQdQujOBO8-81" value="" style="endArrow=none;html=1;rounded=0;entryX=1;entryY=1;entryDx=0;entryDy=0;" edge="1" parent="1" target="klNUv37gP6uQdQujOBO8-2">
          <mxGeometry width="50" height="50" relative="1" as="geometry">
            <mxPoint x="985" y="210" as="sourcePoint" />
            <mxPoint x="910" y="150" as="targetPoint" />
          </mxGeometry>
        </mxCell>
        <mxCell id="klNUv37gP6uQdQujOBO8-82" value="Tarifa" style="ellipse;whiteSpace=wrap;html=1;" vertex="1" parent="1">
          <mxGeometry x="1050" y="210" width="80" height="50" as="geometry" />
        </mxCell>
        <mxCell id="klNUv37gP6uQdQujOBO8-83" value="" style="endArrow=none;html=1;rounded=0;entryX=1;entryY=0.75;entryDx=0;entryDy=0;exitX=0;exitY=0;exitDx=0;exitDy=0;" edge="1" parent="1" source="klNUv37gP6uQdQujOBO8-82" target="klNUv37gP6uQdQujOBO8-2">
          <mxGeometry width="50" height="50" relative="1" as="geometry">
            <mxPoint x="995" y="190" as="sourcePoint" />
            <mxPoint x="920" y="140" as="targetPoint" />
          </mxGeometry>
        </mxCell>
      </root>
    </mxGraphModel>
  </diagram>
</mxfile>
